<?xml version="1.0" standalone="no"?>
<!DOCTYPE svg PUBLIC "-//W3C//DTD SVG 20010904//EN"
 "http://www.w3.org/TR/2001/REC-SVG-20010904/DTD/svg10.dtd">
<svg version="1.0" xmlns="http://www.w3.org/2000/svg"
 width="373.000000pt" height="373.000000pt" viewBox="0 0 373.000000 373.000000"
 preserveAspectRatio="xMidYMid meet">
<metadata>
Created by potrace 1.11, written by Peter Selinger 2001-2013
</metadata>
<g transform="translate(0.000000,373.000000) scale(0.100000,-0.100000)"
fill="#000000" stroke="none">
<path d="M53 3709 c-17 -11 -36 -34 -42 -51 -8 -22 -11 -558 -11 -1802 0
-1734 1 -1772 19 -1800 11 -16 30 -35 43 -42 34 -19 3572 -19 3606 0 13 7 32
26 43 42 18 28 19 66 19 1801 0 1162 -3 1781 -10 1798 -12 31 -27 47 -57 63
-16 9 -472 12 -1800 12 -1769 0 -1778 0 -1810 -21z"/>
</g>
</svg>
