<svg id="Layer_1" data-name="Layer 1" xmlns="http://www.w3.org/2000/svg" viewBox="0 0 453 453"><defs><style>.cls-1,.cls-3{fill:#004c73;}.cls-2{fill:#fff;}.cls-3{font-size:197px;font-family:TimesNewRomanPSMT, Times New Roman;}.cls-4{letter-spacing:-0.02em;}</style></defs><rect class="cls-1" x="1" y="1" width="451" height="451" rx="11.04"/><path d="M915,280a10,10,0,0,1,10,10V719a10,10,0,0,1-10,10H486a10,10,0,0,1-10-10V290a10,10,0,0,1,10-10H915m0-2H486a12,12,0,0,0-12,12V719a12,12,0,0,0,12,12H915a12,12,0,0,0,12-12V290a12,12,0,0,0-12-12Z" transform="translate(-474 -278)"/><rect class="cls-2" x="12.53" y="12.39" width="428.47" height="428.47" rx="11.04"/><path d="M904,291.39a10.05,10.05,0,0,1,10,10V707.82a10,10,0,0,1-10,10H497.57a10,10,0,0,1-10-10V301.43a10.05,10.05,0,0,1,10-10H904m0-2H497.57a12,12,0,0,0-12,12V707.82a12,12,0,0,0,12,12H904a12,12,0,0,0,12-12V301.43a12,12,0,0,0-12-12Z" transform="translate(-474 -278)"/><text class="cls-3" transform="translate(103.68 290.88)">//<tspan class="cls-4" x="109.47" y="0">V</tspan></text></svg>